<svg width="49" height="49" viewBox="0 0 49 49" fill="none" xmlns="http://www.w3.org/2000/svg">
<path d="M43.7708 1.66675H4.5622C3.6616 1.66675 2.7979 2.02451 2.16108 2.66132C1.52426 3.29814 1.1665 4.16185 1.1665 5.06244V44.271C1.1665 45.1716 1.52426 46.0354 2.16108 46.6722C2.7979 47.309 3.6616 47.6667 4.5622 47.6667H43.7708C44.6714 47.6667 45.5351 47.309 46.1719 46.6722C46.8087 46.0354 47.1665 45.1716 47.1665 44.271V5.06244C47.1665 4.16185 46.8087 3.29814 46.1719 2.66132C45.5351 2.02451 44.6714 1.66675 43.7708 1.66675ZM14.8771 40.853H7.96109V18.8848H14.8771V40.853ZM11.4143 15.8405C10.6298 15.8361 9.86417 15.5994 9.21408 15.1602C8.56398 14.7211 8.05853 14.0993 7.76152 13.3732C7.46451 12.647 7.38925 11.8492 7.54523 11.0804C7.70122 10.3115 8.08146 9.60611 8.63797 9.05316C9.19448 8.50021 9.90232 8.12451 10.6721 7.97346C11.442 7.82242 12.2393 7.9028 12.9635 8.20447C13.6877 8.50614 14.3063 9.01557 14.7412 9.66847C15.1762 10.3214 15.408 11.0885 15.4073 11.873C15.4147 12.3982 15.3163 12.9196 15.1179 13.406C14.9196 13.8923 14.6253 14.3338 14.2527 14.704C13.8801 15.0743 13.4367 15.3657 12.9491 15.561C12.4614 15.7562 11.9395 15.8513 11.4143 15.8405ZM40.3687 40.8722H33.456V28.8706C33.456 25.3312 31.9514 24.2387 30.0091 24.2387C27.9583 24.2387 25.9458 25.7848 25.9458 28.9601V40.8722H19.0298V18.9008H25.6807V21.9451H25.7701C26.4378 20.5938 28.7761 18.2843 32.3443 18.2843C36.2032 18.2843 40.3719 20.5747 40.3719 27.283L40.3687 40.8722Z" fill="#0A66C2"/>
</svg>
